<svg xmlns="http://www.w3.org/2000/svg" width="380" height="68" viewBox="0 0 380 68">
    <title>laravel pennant logo</title>
    <style>
       #pennant { fill: #000 } @media (prefers-color-scheme:dark) { #pennant { fill: #fff } }
    </style>
    <path fill="#99d1a4" d="M69,34c0,.58,0,1.15,0,1.72L10.26,51.58A32,32,0,1,1,69,34ZM37,66A32,32,0,0,0,68,42L14.25,56.5A31.92,31.92,0,0,0,37,66Z" />
    <polygon fill="#1aa44a" points="5 54 5 14 79 34 5 54" />
    <path fill="#17542e" d="M9,17V51L5,54V46.5H2v-5H5v-15H2v-5H5V14Z" />
    <path id="pennant" d="M216.1,18.9h4.6V48.4h-4.6Zm-50.6,9.9h4.6V48.4h-4.6V45.7a5.82,5.82,0,0,1-2.6,2.3,7.19,7.19,0,0,1-3.5.8,10.7,10.7,0,0,1-4.1-.8,9,9,0,0,1-3.2-2.3,11.55,11.55,0,0,1-2.1-3.3,10.52,10.52,0,0,1-.7-4,10,10,0,0,1,.7-3.9,10.32,10.32,0,0,1,2.1-3.3,10.45,10.45,0,0,1,3.2-2.3,10.7,10.7,0,0,1,4.1-.8,8.9,8.9,0,0,1,3.5.8,6.48,6.48,0,0,1,2.6,2.3Zm0,9.8a6.39,6.39,0,0,0-1.6-4.4,4.63,4.63,0,0,0-1.8-1.3,6,6,0,0,0-4.8,0,5.94,5.94,0,0,0-1.8,1.3,6.71,6.71,0,0,0,0,8.8,4.63,4.63,0,0,0,1.8,1.3,6,6,0,0,0,4.8,0,5.94,5.94,0,0,0,1.8-1.3,6.66,6.66,0,0,0,1.2-2A8.6,8.6,0,0,0,165.5,38.6Zm23.1-9.8-5.8,15-5.8-15h-4.7l7.6,19.6h5.8l7.6-19.6Zm24.5,11.5H197.8a5.54,5.54,0,0,0,5.8,5c3.5,0,5.9-3.1,5.9-3.1l3.1,2.4c-2.8,3-5.1,4.3-8.6,4.3-6.4,0-10.7-4-10.7-10.3a10.18,10.18,0,0,1,10.1-10.3C209.6,28.3,213.9,33.8,213.1,40.3Zm-4.2-3.4a5.4,5.4,0,0,0-5.6-5,5.28,5.28,0,0,0-5.5,5Zm-107.3-18H96.7V48.4h14V44.1h-9.1Zm34.6,29.5h4.6V33.3h7.9V28.8H136.2ZM128,28.8h4.6V48.4H128V45.7a5.82,5.82,0,0,1-2.6,2.3,7.19,7.19,0,0,1-3.5.8,10.7,10.7,0,0,1-4.1-.8,9,9,0,0,1-3.2-2.3,11.55,11.55,0,0,1-2.1-3.3,10.52,10.52,0,0,1-.7-4,10,10,0,0,1,.7-3.9,10.32,10.32,0,0,1,2.1-3.3,10.45,10.45,0,0,1,3.2-2.3,10.7,10.7,0,0,1,4.1-.8,8.9,8.9,0,0,1,3.5.8,6.48,6.48,0,0,1,2.6,2.3Zm0,9.8a6.39,6.39,0,0,0-1.6-4.4,4.63,4.63,0,0,0-1.8-1.3,6,6,0,0,0-4.8,0,5.94,5.94,0,0,0-1.8,1.3,6.71,6.71,0,0,0,0,8.8,4.63,4.63,0,0,0,1.8,1.3,6,6,0,0,0,4.8,0,5.94,5.94,0,0,0,1.8-1.3,6.66,6.66,0,0,0,1.2-2A8.6,8.6,0,0,0,128,38.6ZM255.2,28.29a7.09,7.09,0,0,1-2.35,5.63,9.43,9.43,0,0,1-6.39,2h-8.09V48.43H236V20.7h10.46a9.44,9.44,0,0,1,6.41,2A7,7,0,0,1,255.2,28.29Zm-2.41,0a5.19,5.19,0,0,0-1.64-4.09,7.15,7.15,0,0,0-4.85-1.44h-7.93v11.1h7.93a7.15,7.15,0,0,0,4.85-1.44A5.2,5.2,0,0,0,252.79,28.29Zm20.48,2.65a10.38,10.38,0,0,1,2.11,6.93v.51h-14.5v.12a9,9,0,0,0,1.78,6,6.4,6.4,0,0,0,5.17,2.09,9.52,9.52,0,0,0,6.29-2.42l.92,1.87A9.08,9.08,0,0,1,271.83,48a11.41,11.41,0,0,1-4,.72A9,9,0,0,1,261,46a10.37,10.37,0,0,1-2.52-7.4,11.88,11.88,0,0,1,1.13-5.31,8.39,8.39,0,0,1,3.14-3.58,8.55,8.55,0,0,1,4.66-1.27A7.34,7.34,0,0,1,273.27,30.94Zm-.1,5.61A7.3,7.3,0,0,0,271.45,32a5.33,5.33,0,0,0-4.08-1.57A5.87,5.87,0,0,0,263.09,32,7.72,7.72,0,0,0,261,36.55Zm16.1-8.1a7.81,7.81,0,0,0-4,1,6.39,6.39,0,0,0-2.63,3l-.31-3.58h-2.21a43.57,43.57,0,0,1,.3,5.41v14.1h2.29V37.13a6.58,6.58,0,0,1,1.76-4.82,6.16,6.16,0,0,1,4.62-1.8,4.54,4.54,0,0,1,3.64,1.37,6.48,6.48,0,0,1,1.16,4.28V48.43h2.33V36Q296.18,28.45,289.27,28.45Zm22.06,0a7.81,7.81,0,0,0-4,1,6.46,6.46,0,0,0-2.64,3l-.3-3.58h-2.21a43.57,43.57,0,0,1,.3,5.41v14.1h2.29V37.13a6.54,6.54,0,0,1,1.76-4.82,6.14,6.14,0,0,1,4.61-1.8,4.54,4.54,0,0,1,3.65,1.37,6.53,6.53,0,0,1,1.16,4.28V48.43h2.33V36Q318.24,28.45,311.33,28.45Zm27.06.47h2.33V48.43h-2.33V44.69a6.31,6.31,0,0,1-2.54,3,7.66,7.66,0,0,1-4.06,1,8.17,8.17,0,0,1-4.49-1.23,8,8,0,0,1-3-3.5,12.59,12.59,0,0,1-1.05-5.32,12.68,12.68,0,0,1,1.06-5.35,8.37,8.37,0,0,1,3-3.58,7.87,7.87,0,0,1,4.45-1.27,7.74,7.74,0,0,1,4,1,6.46,6.46,0,0,1,2.58,3Zm0,9.66a9.52,9.52,0,0,0-1.64-6,6.19,6.19,0,0,0-9.35.05,9.55,9.55,0,0,0-1.68,6,9.09,9.09,0,0,0,1.68,5.86,5.72,5.72,0,0,0,4.73,2.09,5.52,5.52,0,0,0,4.62-2.11A9.42,9.42,0,0,0,338.39,38.58Zm17.55-10.13a7.81,7.81,0,0,0-4,1,6.39,6.39,0,0,0-2.63,3L349,28.92h-2.21a43.57,43.57,0,0,1,.3,5.41v14.1h2.29V37.13a6.58,6.58,0,0,1,1.76-4.82,6.15,6.15,0,0,1,4.61-1.8,4.54,4.54,0,0,1,3.65,1.37,6.53,6.53,0,0,1,1.16,4.28V48.43h2.33V36Q362.85,28.45,355.94,28.45ZM378,30.83V28.92h-5.65V22.84l-2.33.9v5.18h-3.77v1.91H370V42.9a5.87,5.87,0,0,0,1.44,4.32,5.3,5.3,0,0,0,3.94,1.44,10,10,0,0,0,2.49-.31V46.21a6.29,6.29,0,0,1-2.07.35,3.47,3.47,0,0,1-2.59-.9,4.56,4.56,0,0,1-.88-3.23V30.83Z" />
</svg>
