<svg xmlns="http://www.w3.org/2000/svg" viewBox="0 0 380 68">
    <title>laravel pennant logo</title>
    <path fill="white" d="M70.72,29.69l16,4.31-16,4.31A34,34,0,0,1,10,54.71l-7,1.9V48.5H0v-9H3v-11H0v-9H3V11.39l7,1.9a34,34,0,0,1,60.68,16.4Zm218.55-3.24a9.77,9.77,0,0,0-5,1.31h0l-.07-.85H277.8l.29,2.25a39.68,39.68,0,0,1,.29,5.16v16.1h6.29V37.13a4.62,4.62,0,0,1,1.19-3.42,4.17,4.17,0,0,1,3.18-1.2,2.74,2.74,0,0,1,2.13.67,4.9,4.9,0,0,1,.68,3V50.43h6.33V36C298.18,29.84,295,26.45,289.27,26.45Zm47.12.47h6.33V50.43h-6.33v-.77a9.93,9.93,0,0,1-4.6,1,10.16,10.16,0,0,1-5.56-1.54,10,10,0,0,1-3.72-4.35,14.63,14.63,0,0,1-1.23-6.16,14.72,14.72,0,0,1,1.25-6.19A10.43,10.43,0,0,1,326.24,28a10,10,0,0,1,5.55-1.59,9.84,9.84,0,0,1,4.6,1.05Zm0,11.66a7.62,7.62,0,0,0-1.22-4.73,4.19,4.19,0,0,0-6.19,0,7.66,7.66,0,0,0-1.26,4.75A7.29,7.29,0,0,0,329,43.26a3.78,3.78,0,0,0,3.18,1.34,3.56,3.56,0,0,0,3-1.34A7.54,7.54,0,0,0,336.39,38.58ZM311.33,26.45a9.83,9.83,0,0,0-5.06,1.31h0l-.07-.85h-6.33l.29,2.25a41.52,41.52,0,0,1,.29,5.16v16.1h6.29V37.13a4.66,4.66,0,0,1,1.18-3.42,4.21,4.21,0,0,1,3.19-1.2,2.78,2.78,0,0,1,2.13.66,5,5,0,0,1,.68,3V50.43h6.33V36C320.24,29.84,317.08,26.45,311.33,26.45ZM380,32.83V26.92h-5.65v-7L368,22.36v4.56h-3.77v4.93c-1.18-3.51-4-5.4-8.31-5.4a9.77,9.77,0,0,0-5.05,1.31h0l-.08-.85h-6.32l.29,2.25a41.41,41.41,0,0,1,.29,5.16v16.1h6.29V37.13a4.62,4.62,0,0,1,1.19-3.42,4.17,4.17,0,0,1,3.18-1.2,2.78,2.78,0,0,1,2.13.66,5,5,0,0,1,.68,3V50.43h6.33V36a14.16,14.16,0,0,0-.33-3.17H368V42.9a7.79,7.79,0,0,0,2,5.73,7.25,7.25,0,0,0,5.37,2,11.91,11.91,0,0,0,3-.37l1.5-.39V43.38l-2.66.94a4.12,4.12,0,0,1-1.4.24,1.83,1.83,0,0,1-1.16-.3s-.31-.38-.31-1.83v-9.6ZM214.1,16.9h8.6V50.4h-8.6V45.92l0,0c-2.76,3-5.53,4.94-10.06,4.94-7.31,0-12.31-4.57-12.68-11.47l-4.25,11h-8.54L172.1,33.82V50.4h-8.6v-.46a9.25,9.25,0,0,1-4.1.86,12.84,12.84,0,0,1-4.87-.95A11.18,11.18,0,0,1,150.61,47a14,14,0,0,1-2.46-3.87,12.5,12.5,0,0,1-.85-4.77,13.15,13.15,0,0,1,.34-3.1H142.8V50.4H126v-.46a9.25,9.25,0,0,1-4.1.86,12.84,12.84,0,0,1-4.87-.95A11.18,11.18,0,0,1,113.11,47l-.41-.48V50.4h-18V16.9h8.9V42.1h6.68a13.37,13.37,0,0,1-.48-3.7,12,12,0,0,1,.85-4.67,12.36,12.36,0,0,1,6.26-6.62l.12-.06a12.84,12.84,0,0,1,4.87-.95A10.6,10.6,0,0,1,126,27V26.8h24.7v3a12.61,12.61,0,0,1,3.71-2.66l.12-.06a12.84,12.84,0,0,1,4.87-.95,10.6,10.6,0,0,1,4.1.88V26.8h14.87l4.43,11.45,4.43-11.45h9l-1.1,2.84a12,12,0,0,1,8.28-3.34,11.37,11.37,0,0,1,8.66,3.87,12,12,0,0,1,2,3.21ZM126,38.6a4.89,4.89,0,0,0-.27-1.7,4.66,4.66,0,0,0-.87-1.42,2.64,2.64,0,0,0-1-.74,4,4,0,0,0-3.22,0,3.71,3.71,0,0,0-1.11.81,4.74,4.74,0,0,0-.81,1.35,5.49,5.49,0,0,0,0,3.4,4.66,4.66,0,0,0,.87,1.42,2.64,2.64,0,0,0,1,.74,4,4,0,0,0,3.22,0,3.71,3.71,0,0,0,1.11-.81,4.68,4.68,0,0,0,.78-1.28A6.55,6.55,0,0,0,126,38.6Zm37.5,0a4.89,4.89,0,0,0-.27-1.7,4.66,4.66,0,0,0-.87-1.42,2.64,2.64,0,0,0-1.05-.74,4,4,0,0,0-3.22,0,3.71,3.71,0,0,0-1.11.81,4.74,4.74,0,0,0-.81,1.35,5.49,5.49,0,0,0,0,3.4,4.66,4.66,0,0,0,.87,1.42,2.64,2.64,0,0,0,1.05.74,4,4,0,0,0,3.22,0,3.71,3.71,0,0,0,1.11-.81,4.68,4.68,0,0,0,.78-1.28A6.55,6.55,0,0,0,163.5,38.6Zm37.15-3.7H206a3.52,3.52,0,0,0-2.67-1A3.42,3.42,0,0,0,200.65,34.9Zm5.81,7.4h-5.62a3.86,3.86,0,0,0,2.76,1A5.1,5.1,0,0,0,206.46,42.3Zm7.64,0h-1.2l1.2.93Zm43.1-14a9,9,0,0,1-3,7.14,11.36,11.36,0,0,1-7.7,2.54h-6.09V50.43H234V18.7h12.46a11.4,11.4,0,0,1,7.72,2.52A8.94,8.94,0,0,1,257.2,28.29Zm-6.41,0a3.09,3.09,0,0,0-1-2.58,5.31,5.31,0,0,0-3.53-.95h-5.93v7.1h5.93a5.37,5.37,0,0,0,3.53-.94A3.16,3.16,0,0,0,250.79,28.29Zm24,12.71,2.69,5.48-1.06,1a11.23,11.23,0,0,1-3.89,2.36,13.55,13.55,0,0,1-4.7.84,10.91,10.91,0,0,1-8.33-3.32,12.34,12.34,0,0,1-3.06-8.77,14.07,14.07,0,0,1,1.33-6.19,10.47,10.47,0,0,1,3.88-4.4,10.63,10.63,0,0,1,5.72-1.57,9.27,9.27,0,0,1,7.42,3.2,12.32,12.32,0,0,1,2.59,8.22v2.51H263a5.64,5.64,0,0,0,1.16,2.84,4.48,4.48,0,0,0,3.65,1.38,7.52,7.52,0,0,0,5-2Zm-11.1-6.45h7a3.68,3.68,0,0,0-.73-1.21,3.33,3.33,0,0,0-2.63-.94,3.88,3.88,0,0,0-2.87,1A4.41,4.41,0,0,0,263.69,34.55Z" />
    <path fill="#99d1a4" d="M69,34c0,.58,0,1.15,0,1.72L10.26,51.58A32,32,0,1,1,69,34ZM37,66A32,32,0,0,0,68,42L14.25,56.5A31.92,31.92,0,0,0,37,66Z" />
    <polygon fill="#1aa44a" points="5 54 5 14 79 34 5 54" />
    <path fill="#17542e" d="M9,17V51L5,54V46.5H2v-5H5v-15H2v-5H5V14Z" />
    <path d="M216.1,18.9h4.6V48.4h-4.6Zm-50.6,9.9h4.6V48.4h-4.6V45.7a5.82,5.82,0,0,1-2.6,2.3,7.19,7.19,0,0,1-3.5.8,10.7,10.7,0,0,1-4.1-.8,9,9,0,0,1-3.2-2.3,11.55,11.55,0,0,1-2.1-3.3,10.52,10.52,0,0,1-.7-4,10,10,0,0,1,.7-3.9,10.32,10.32,0,0,1,2.1-3.3,10.45,10.45,0,0,1,3.2-2.3,10.7,10.7,0,0,1,4.1-.8,8.9,8.9,0,0,1,3.5.8,6.48,6.48,0,0,1,2.6,2.3Zm0,9.8a6.39,6.39,0,0,0-1.6-4.4,4.63,4.63,0,0,0-1.8-1.3,6,6,0,0,0-4.8,0,5.94,5.94,0,0,0-1.8,1.3,6.71,6.71,0,0,0,0,8.8,4.63,4.63,0,0,0,1.8,1.3,6,6,0,0,0,4.8,0,5.94,5.94,0,0,0,1.8-1.3,6.66,6.66,0,0,0,1.2-2A8.6,8.6,0,0,0,165.5,38.6Zm23.1-9.8-5.8,15-5.8-15h-4.7l7.6,19.6h5.8l7.6-19.6Zm24.5,11.5H197.8a5.54,5.54,0,0,0,5.8,5c3.5,0,5.9-3.1,5.9-3.1l3.1,2.4c-2.8,3-5.1,4.3-8.6,4.3-6.4,0-10.7-4-10.7-10.3a10.18,10.18,0,0,1,10.1-10.3C209.6,28.3,213.9,33.8,213.1,40.3Zm-4.2-3.4a5.4,5.4,0,0,0-5.6-5,5.28,5.28,0,0,0-5.5,5Zm-107.3-18H96.7V48.4h14V44.1h-9.1Zm34.6,29.5h4.6V33.3h7.9V28.8H136.2ZM128,28.8h4.6V48.4H128V45.7a5.82,5.82,0,0,1-2.6,2.3,7.19,7.19,0,0,1-3.5.8,10.7,10.7,0,0,1-4.1-.8,9,9,0,0,1-3.2-2.3,11.55,11.55,0,0,1-2.1-3.3,10.52,10.52,0,0,1-.7-4,10,10,0,0,1,.7-3.9,10.32,10.32,0,0,1,2.1-3.3,10.45,10.45,0,0,1,3.2-2.3,10.7,10.7,0,0,1,4.1-.8,8.9,8.9,0,0,1,3.5.8,6.48,6.48,0,0,1,2.6,2.3Zm0,9.8a6.39,6.39,0,0,0-1.6-4.4,4.63,4.63,0,0,0-1.8-1.3,6,6,0,0,0-4.8,0,5.94,5.94,0,0,0-1.8,1.3,6.71,6.71,0,0,0,0,8.8,4.63,4.63,0,0,0,1.8,1.3,6,6,0,0,0,4.8,0,5.94,5.94,0,0,0,1.8-1.3,6.66,6.66,0,0,0,1.2-2A8.6,8.6,0,0,0,128,38.6ZM255.2,28.29a7.09,7.09,0,0,1-2.35,5.63,9.43,9.43,0,0,1-6.39,2h-8.09V48.43H236V20.7h10.46a9.44,9.44,0,0,1,6.41,2A7,7,0,0,1,255.2,28.29Zm-2.41,0a5.19,5.19,0,0,0-1.64-4.09,7.15,7.15,0,0,0-4.85-1.44h-7.93v11.1h7.93a7.15,7.15,0,0,0,4.85-1.44A5.2,5.2,0,0,0,252.79,28.29Zm20.48,2.65a10.38,10.38,0,0,1,2.11,6.93v.51h-14.5v.12a9,9,0,0,0,1.78,6,6.4,6.4,0,0,0,5.17,2.09,9.52,9.52,0,0,0,6.29-2.42l.92,1.87A9.08,9.08,0,0,1,271.83,48a11.41,11.41,0,0,1-4,.72A9,9,0,0,1,261,46a10.37,10.37,0,0,1-2.52-7.4,11.88,11.88,0,0,1,1.13-5.31,8.39,8.39,0,0,1,3.14-3.58,8.55,8.55,0,0,1,4.66-1.27A7.34,7.34,0,0,1,273.27,30.94Zm-.1,5.61A7.3,7.3,0,0,0,271.45,32a5.33,5.33,0,0,0-4.08-1.57A5.87,5.87,0,0,0,263.09,32,7.72,7.72,0,0,0,261,36.55Zm16.1-8.1a7.81,7.81,0,0,0-4,1,6.39,6.39,0,0,0-2.63,3l-.31-3.58h-2.21a43.57,43.57,0,0,1,.3,5.41v14.1h2.29V37.13a6.58,6.58,0,0,1,1.76-4.82,6.16,6.16,0,0,1,4.62-1.8,4.54,4.54,0,0,1,3.64,1.37,6.48,6.48,0,0,1,1.16,4.28V48.43h2.33V36Q296.18,28.45,289.27,28.45Zm22.06,0a7.81,7.81,0,0,0-4,1,6.46,6.46,0,0,0-2.64,3l-.3-3.58h-2.21a43.57,43.57,0,0,1,.3,5.41v14.1h2.29V37.13a6.54,6.54,0,0,1,1.76-4.82,6.14,6.14,0,0,1,4.61-1.8,4.54,4.54,0,0,1,3.65,1.37,6.53,6.53,0,0,1,1.16,4.28V48.43h2.33V36Q318.24,28.45,311.33,28.45Zm27.06.47h2.33V48.43h-2.33V44.69a6.31,6.31,0,0,1-2.54,3,7.66,7.66,0,0,1-4.06,1,8.17,8.17,0,0,1-4.49-1.23,8,8,0,0,1-3-3.5,12.59,12.59,0,0,1-1.05-5.32,12.68,12.68,0,0,1,1.06-5.35,8.37,8.37,0,0,1,3-3.58,7.87,7.87,0,0,1,4.45-1.27,7.74,7.74,0,0,1,4,1,6.46,6.46,0,0,1,2.58,3Zm0,9.66a9.52,9.52,0,0,0-1.64-6,6.19,6.19,0,0,0-9.35.05,9.55,9.55,0,0,0-1.68,6,9.09,9.09,0,0,0,1.68,5.86,5.72,5.72,0,0,0,4.73,2.09,5.52,5.52,0,0,0,4.62-2.11A9.42,9.42,0,0,0,338.39,38.58Zm17.55-10.13a7.81,7.81,0,0,0-4,1,6.39,6.39,0,0,0-2.63,3L349,28.92h-2.21a43.57,43.57,0,0,1,.3,5.41v14.1h2.29V37.13a6.58,6.58,0,0,1,1.76-4.82,6.15,6.15,0,0,1,4.61-1.8,4.54,4.54,0,0,1,3.65,1.37,6.53,6.53,0,0,1,1.16,4.28V48.43h2.33V36Q362.85,28.45,355.94,28.45ZM378,30.83V28.92h-5.65V22.84l-2.33.9v5.18h-3.77v1.91H370V42.9a5.87,5.87,0,0,0,1.44,4.32,5.3,5.3,0,0,0,3.94,1.44,10,10,0,0,0,2.49-.31V46.21a6.29,6.29,0,0,1-2.07.35,3.47,3.47,0,0,1-2.59-.9,4.56,4.56,0,0,1-.88-3.23V30.83Z" />
</svg>
